<svg width="28" height="26" viewBox="0 0 28 26" fill="none" xmlns="http://www.w3.org/2000/svg">
<path d="M26.998 10H25.686L23.405 4.047C22.988 2.822 21.843 2 20.559 2H18.815C18.401 0.839 17.301 0 15.999 0H11.999C10.697 0 9.597 0.839 9.183 2H7.439C6.154 2 5.01 2.823 4.606 4.012L2.312 10H1C0.448 10 0 10.448 0 11C0 11.552 0.448 12 1 12H1.19L3.667 23.675C3.983 25.044 5.185 26 6.59 26H21.408C22.813 26 24.015 25.044 24.335 23.657L26.809 12H26.999C27.551 12 27.999 11.552 27.999 11C27.999 10.448 27.55 10 26.998 10ZM11.998 2H15.998C16.549 2 16.998 2.449 16.998 3C16.998 3.551 16.549 4 15.998 4H11.998C11.447 4 10.998 3.551 10.998 3C10.998 2.449 11.447 2 11.998 2ZM6.484 4.693C6.626 4.278 7.009 4 7.438 4H9.182C9.596 5.161 10.696 6 11.998 6H15.998C17.3 6 18.4 5.161 18.814 4H20.558C20.987 4 21.37 4.278 21.524 4.728L23.544 10H4.452L6.485 4.693H6.484ZM22.381 23.225C22.276 23.682 21.875 24 21.407 24H6.589C6.121 24 5.72 23.681 5.618 23.242L3.232 12H24.764L22.382 23.225H22.381ZM7.998 21V15C7.998 14.448 8.446 14 8.998 14C9.55 14 9.998 14.448 9.998 15V21C9.998 21.552 9.55 22 8.998 22C8.446 22 7.998 21.552 7.998 21ZM12.998 21V15C12.998 14.448 13.446 14 13.998 14C14.55 14 14.998 14.448 14.998 15V21C14.998 21.552 14.55 22 13.998 22C13.446 22 12.998 21.552 12.998 21ZM17.998 21V15C17.998 14.448 18.446 14 18.998 14C19.55 14 19.998 14.448 19.998 15V21C19.998 21.552 19.55 22 18.998 22C18.446 22 17.998 21.552 17.998 21Z" fill="black"/>
</svg>
