<svg width="26" height="24" viewBox="0 0 26 24" fill="none" xmlns="http://www.w3.org/2000/svg">
<path d="M13 24C12.7617 24 12.5235 23.9085 12.342 23.7264L2.34443 13.6968C0.832975 12.1805 0 10.1656 0 8.02186C0 5.87812 0.832975 3.86229 2.34443 2.34692C5.25379 -0.569909 9.86261 -0.766917 13 1.75497C16.1374 -0.76785 20.7471 -0.570843 23.6556 2.34692C25.167 3.86323 26 5.87812 26 8.02186C26 10.1656 25.167 12.1814 23.6556 13.6968L13.658 23.7264C13.4765 23.9085 13.2383 24 13 24ZM8.00122 1.86607C6.42927 1.86607 4.85732 2.46643 3.66044 3.66622C2.50079 4.82959 1.8614 6.37577 1.8614 8.02092C1.8614 9.66608 2.50079 11.2123 3.66044 12.3756L13 21.7452L22.3396 12.3756C23.4992 11.2123 24.1386 9.66608 24.1386 8.02092C24.1386 6.37577 23.4992 4.82959 22.3396 3.66622C19.9458 1.26572 16.0518 1.26572 13.658 3.66622C13.2941 4.03129 12.7059 4.03129 12.342 3.66622C11.1451 2.4655 9.57317 1.86607 8.00122 1.86607Z" fill="black"/>
</svg>
