<svg xmlns="http://www.w3.org/2000/svg" viewBox="0 0 32 40" x="0px" y="0px"><path d="M9,22h14.626c1.232,0,2.357-.773,2.8-1.923l3.461-9c.355-.923,.233-1.96-.327-2.775-.56-.815-1.484-1.302-2.473-1.302H8.061l-.706-2.748c-.341-1.326-1.536-2.252-2.905-2.252h-1.449c-.552,0-1,.448-1,1s.448,1,1,1h1.449c.457,0,.854,.309,.969,.751l.892,3.468,2.465,11.804c-1.547,.118-2.774,1.4-2.774,2.977,0,1.654,1.346,3,3,3h.184c-.112,.314-.184,.648-.184,1,0,1.654,1.346,3,3,3s3-1.346,3-3c0-.352-.072-.686-.184-1h4.369c-.112,.314-.184,.648-.184,1,0,1.654,1.346,3,3,3s3-1.346,3-3c0-.352-.072-.686-.184-1h1.184c.552,0,1-.448,1-1s-.448-1-1-1H9c-.551,0-1-.449-1-1s.449-1,1-1ZM27.088,9c.334,0,.635,.158,.824,.434,.189,.276,.229,.613,.109,.925l-3.461,9c-.148,.384-.523,.642-.934,.642H10.813l-2.297-11H27.088ZM13,27c0,.551-.449,1-1,1s-1-.449-1-1,.449-1,1-1,1,.449,1,1Zm10,0c0,.551-.449,1-1,1s-1-.449-1-1,.449-1,1-1,1,.449,1,1Z"/><text x="0" y="47" fill="#000000" font-size="5px" font-weight="bold" font-family="'Helvetica Neue', Helvetica, Arial-Unicode, Arial, Sans-serif">Created by Fajriah Robiatul Adawiah</text><text x="0" y="52" fill="#000000" font-size="5px" font-weight="bold" font-family="'Helvetica Neue', Helvetica, Arial-Unicode, Arial, Sans-serif">from the Noun Project</text></svg>