<svg xmlns="http://www.w3.org/2000/svg" viewBox="0 0 32 40" x="0px" y="0px"><path d="M16,28.841c-.256,0-.512-.098-.707-.293L4.551,17.806c-1.624-1.624-2.519-3.782-2.519-6.078s.895-4.455,2.519-6.078c3.126-3.124,8.078-3.335,11.449-.634,3.371-2.702,8.324-2.491,11.449,.634,1.624,1.624,2.519,3.782,2.519,6.078s-.895,4.455-2.519,6.078l-10.742,10.742c-.195,.195-.451,.293-.707,.293ZM10.629,5.135c-1.689,0-3.378,.643-4.664,1.928-1.246,1.246-1.933,2.902-1.933,4.664s.687,3.418,1.933,4.664l10.035,10.035,10.035-10.035c1.246-1.246,1.933-2.902,1.933-4.664s-.687-3.418-1.933-4.664c-2.572-2.571-6.756-2.571-9.328,0-.391,.391-1.023,.391-1.414,0-1.286-1.286-2.975-1.928-4.664-1.928Z"/><text x="0" y="47" fill="#000000" font-size="5px" font-weight="bold" font-family="'Helvetica Neue', Helvetica, Arial-Unicode, Arial, Sans-serif">Created by Fajriah Robiatul Adawiah</text><text x="0" y="52" fill="#000000" font-size="5px" font-weight="bold" font-family="'Helvetica Neue', Helvetica, Arial-Unicode, Arial, Sans-serif">from the Noun Project</text></svg>