<svg xmlns="http://www.w3.org/2000/svg" viewBox="0 0 32 40" x="0px" y="0px"><path d="M3,8h15.142c.447,1.72,1.999,3,3.858,3s3.411-1.28,3.858-3h3.142c.553,0,1-.448,1-1s-.447-1-1-1h-3.142c-.447-1.72-1.999-3-3.858-3s-3.411,1.28-3.858,3H3c-.553,0-1,.448-1,1s.447,1,1,1Zm19-3c1.103,0,2,.897,2,2s-.897,2-2,2-2-.897-2-2,.897-2,2-2Z"/><path d="M29,15H13.858c-.447-1.72-1.999-3-3.858-3s-3.411,1.28-3.858,3H3c-.553,0-1,.448-1,1s.447,1,1,1h3.142c.447,1.72,1.999,3,3.858,3s3.411-1.28,3.858-3h15.142c.553,0,1-.448,1-1s-.447-1-1-1Zm-19,3c-1.103,0-2-.897-2-2s.897-2,2-2,2,.897,2,2-.897,2-2,2Z"/><path d="M29,24h-3.142c-.447-1.72-1.999-3-3.858-3s-3.411,1.28-3.858,3H3c-.553,0-1,.448-1,1s.447,1,1,1h15.142c.447,1.72,1.999,3,3.858,3s3.411-1.28,3.858-3h3.142c.553,0,1-.448,1-1s-.447-1-1-1Zm-7,3c-1.103,0-2-.897-2-2s.897-2,2-2,2,.897,2,2-.897,2-2,2Z"/><text x="0" y="47" fill="#000000" font-size="5px" font-weight="bold" font-family="'Helvetica Neue', Helvetica, Arial-Unicode, Arial, Sans-serif">Created by Fajriah Robiatul Adawiah</text><text x="0" y="52" fill="#000000" font-size="5px" font-weight="bold" font-family="'Helvetica Neue', Helvetica, Arial-Unicode, Arial, Sans-serif">from the Noun Project</text></svg>