<svg xmlns="http://www.w3.org/2000/svg" viewBox="0 0 32 40" x="0px" y="0px"><path d="M4.051,9.315l1.128,3.394c.314,.949,.448,1.934,.397,2.929l-.576,11.362c0,1.654,1.346,3,3,3s3-1.346,2.999-3.051l-.575-11.311c-.051-.995,.083-1.98,.397-2.928l1.128-3.395,.051-.315V3c0-.552-.447-1-1-1s-1,.448-1,1v5h-1V3c0-.552-.447-1-1-1s-1,.448-1,1v5h-1V3c0-.552-.447-1-1-1s-1,.448-1,1v6l.051,.315Zm4.375,6.424l.574,11.26c0,.551-.448,1-1,1s-1-.449-1.001-.949l.575-11.311c.062-1.244-.104-2.475-.497-3.66l-.691-2.08h3.229l-.691,2.081c-.393,1.185-.56,2.416-.497,3.659Z"/><path d="M22,30c-1.654,0-3-1.346-3-3v-9.754c0-1.481-.716-2.656-1.317-3.382-1.085-1.309-1.683-3.037-1.683-4.864,0-3.86,2.691-7,6-7s6,3.14,6,7c0,1.827-.598,3.555-1.684,4.864-.601,.725-1.316,1.9-1.316,3.381v9.754c0,1.654-1.346,3-3,3Zm0-26c-2.206,0-4,2.243-4,5,0,1.362,.435,2.636,1.223,3.588,1.163,1.403,1.777,3.014,1.777,4.658v9.754c0,.551,.448,1,1,1s1-.449,1-1v-9.754c0-1.644,.614-3.254,1.776-4.657,.789-.952,1.224-2.226,1.224-3.588,0-2.757-1.794-5-4-5Z"/><text x="0" y="47" fill="#000000" font-size="5px" font-weight="bold" font-family="'Helvetica Neue', Helvetica, Arial-Unicode, Arial, Sans-serif">Created by Fajriah Robiatul Adawiah</text><text x="0" y="52" fill="#000000" font-size="5px" font-weight="bold" font-family="'Helvetica Neue', Helvetica, Arial-Unicode, Arial, Sans-serif">from the Noun Project</text></svg>