<svg xmlns="http://www.w3.org/2000/svg" viewBox="0 0 32 40" x="0px" y="0px"><path d="M26.611,8.567L17.61,2.839c-.979-.622-2.243-.622-3.222,0L5.389,8.567c-.87,.554-1.389,1.5-1.389,2.53v15.902c0,1.654,1.346,3,3,3H25c1.654,0,3-1.346,3-3V11.098c0-1.03-.519-1.976-1.389-2.531ZM13,28v-5c0-.551,.448-1,1-1h4c.552,0,1,.449,1,1v5h-6Zm13-1c0,.551-.448,1-1,1h-4v-5c0-1.654-1.346-3-3-3h-4c-1.654,0-3,1.346-3,3v5H7c-.552,0-1-.449-1-1V11.098c0-.343,.173-.659,.463-.843L15.462,4.527c.164-.104,.351-.156,.538-.156s.374,.052,.537,.156l9,5.727c.29,.185,.463,.5,.463,.844v15.902Z"/><text x="0" y="47" fill="#000000" font-size="5px" font-weight="bold" font-family="'Helvetica Neue', Helvetica, Arial-Unicode, Arial, Sans-serif">Created by Fajriah Robiatul Adawiah</text><text x="0" y="52" fill="#000000" font-size="5px" font-weight="bold" font-family="'Helvetica Neue', Helvetica, Arial-Unicode, Arial, Sans-serif">from the Noun Project</text></svg>