<svg xmlns="http://www.w3.org/2000/svg" viewBox="0 0 100 125" x="0px" y="0px"><defs><style>.cls-1{fill:none;}</style></defs><title>phone icons - cleanup</title><g data-name="bounding squares"><rect data-name="Rectangle" class="cls-1" width="100" height="100"/></g><g><path d="M68.75,16.75H55.125V15.625a5.125,5.125,0,0,0-10.25,0V16.75H31.25A11.38786,11.38786,0,0,0,19.875,28.125a2.0001,2.0001,0,0,0,2,2H23v54.25A5.1305,5.1305,0,0,0,28.125,89.5h43.75A5.1305,5.1305,0,0,0,77,84.375V30.125h1.125a2.0001,2.0001,0,0,0,2-2A11.38786,11.38786,0,0,0,68.75,16.75ZM48.875,15.625a1.125,1.125,0,0,1,2.25,0V16.75h-2.25ZM31.25,20.75h37.5a7.38914,7.38914,0,0,1,7.09961,5.375H24.15039A7.38914,7.38914,0,0,1,31.25,20.75ZM73,84.375A1.12654,1.12654,0,0,1,71.875,85.5h-4.25V40.625a2,2,0,0,0-4,0V85.5H52V40.625a2,2,0,0,0-4,0V85.5H36.375V40.625a2,2,0,0,0-4,0V85.5h-4.25A1.12654,1.12654,0,0,1,27,84.375V30.125H73Z"/></g><text x="0" y="115" fill="#000000" font-size="5px" font-weight="bold" font-family="'Helvetica Neue', Helvetica, Arial-Unicode, Arial, Sans-serif">Created by DigitalShards</text><text x="0" y="120" fill="#000000" font-size="5px" font-weight="bold" font-family="'Helvetica Neue', Helvetica, Arial-Unicode, Arial, Sans-serif">from the Noun Project</text></svg>