<svg xmlns="http://www.w3.org/2000/svg" viewBox="0 0 32 40" x="0px" y="0px"><path d="M4,9v-3c0-1.654,1.346-3,3-3h3c.552,0,1,.448,1,1s-.448,1-1,1h-3c-.551,0-1,.449-1,1v3c0,.552-.448,1-1,1s-1-.448-1-1ZM22,5h3c.551,0,1,.449,1,1v3c0,.552,.448,1,1,1s1-.448,1-1v-3c0-1.654-1.346-3-3-3h-3c-.552,0-1,.448-1,1s.448,1,1,1ZM10,27h-3c-.551,0-1-.449-1-1v-3c0-.552-.448-1-1-1s-1,.448-1,1v3c0,1.654,1.346,3,3,3h3c.552,0,1-.448,1-1s-.448-1-1-1Zm17-5c-.552,0-1,.448-1,1v3c0,.551-.449,1-1,1h-3c-.552,0-1,.448-1,1s.448,1,1,1h3c1.654,0,3-1.346,3-3v-3c0-.552-.448-1-1-1Zm2-7H3c-.552,0-1,.448-1,1s.448,1,1,1H29c.552,0,1-.448,1-1s-.448-1-1-1Z"/><text x="0" y="47" fill="#000000" font-size="5px" font-weight="bold" font-family="'Helvetica Neue', Helvetica, Arial-Unicode, Arial, Sans-serif">Created by Fajriah Robiatul Adawiah</text><text x="0" y="52" fill="#000000" font-size="5px" font-weight="bold" font-family="'Helvetica Neue', Helvetica, Arial-Unicode, Arial, Sans-serif">from the Noun Project</text></svg>