<svg xmlns="http://www.w3.org/2000/svg" viewBox="0 0 32 40" x="0px" y="0px"><path d="M27,7H13.828c-.801,0-1.555,.312-2.121,.879l-.707,.707-.707-.707c-.566-.567-1.32-.879-2.121-.879h-3.172c-1.654,0-3,1.346-3,3v12c0,1.654,1.346,3,3,3h3.172c.801,0,1.555-.312,2.121-.879l.707-.707,.707,.707c.566,.567,1.32,.879,2.121,.879h13.172c1.654,0,3-1.346,3-3V10c0-1.654-1.346-3-3-3Zm1,15c0,.551-.448,1-1,1H13.828c-.263,0-.521-.107-.707-.293l-1.414-1.414c-.195-.195-.451-.293-.707-.293s-.512,.098-.707,.293l-1.414,1.414c-.187,.186-.444,.293-.707,.293h-3.172c-.552,0-1-.449-1-1V10c0-.551,.448-1,1-1h3.172c.263,0,.521,.107,.707,.293l1.414,1.414c.391,.391,1.023,.391,1.414,0l1.414-1.414c.187-.186,.444-.293,.707-.293h13.172c.552,0,1,.449,1,1v12Z"/><path d="M24.293,11.293l-8,8c-.391,.391-.391,1.023,0,1.414,.195,.195,.451,.293,.707,.293s.512-.098,.707-.293l8-8c.391-.391,.391-1.023,0-1.414s-1.023-.391-1.414,0Z"/><circle cx="18" cy="13" r="2"/><circle cx="24" cy="19" r="2"/><text x="0" y="47" fill="#000000" font-size="5px" font-weight="bold" font-family="'Helvetica Neue', Helvetica, Arial-Unicode, Arial, Sans-serif">Created by Fajriah Robiatul Adawiah</text><text x="0" y="52" fill="#000000" font-size="5px" font-weight="bold" font-family="'Helvetica Neue', Helvetica, Arial-Unicode, Arial, Sans-serif">from the Noun Project</text></svg>