<svg xmlns="http://www.w3.org/2000/svg" xmlns:xlink="http://www.w3.org/1999/xlink" version="1.1" x="0px" y="0px" viewBox="0 0 100 125" enable-background="new 0 0 100 100" xml:space="preserve"><path d="M84.287,18.964c-1.296-1.299-3.02-2.017-4.854-2.02l-17.433-0.03l-0.244-3.167c-0.021-1.643-0.672-3.186-1.834-4.352  C58.738,8.208,57.16,7.55,55.48,7.547L44.576,7.529c-0.003,0-0.008,0-0.011,0c-1.675,0-3.25,0.65-4.438,1.833  c-1.166,1.162-1.82,2.701-1.848,4.345l-0.255,3.166l-17.444-0.03c-3.782,0-6.863,3.076-6.869,6.857l-0.002,0.685  c-0.001,0.645,0.254,1.264,0.709,1.72c0.454,0.456,1.072,0.714,1.717,0.715l67.719,0.117c0.002,0,0.002,0,0.004,0  c1.34,0,2.427-1.084,2.43-2.425l0.002-0.686C86.294,21.991,85.58,20.265,84.287,18.964z M42.767,13.989  c0.005-0.06,0.007-0.118,0.007-0.177c0.001-0.479,0.188-0.929,0.527-1.267c0.338-0.337,0.787-0.522,1.265-0.522  c0.001,0,0.002,0,0.003,0l10.905,0.02c0.479,0,0.928,0.188,1.266,0.526s0.524,0.789,0.522,1.268c0,0.06,0.002,0.118,0.007,0.177  l0.224,2.894L42.534,16.88L42.767,13.989z"/><path d="M80.519,29.446H19.014c-1.894,0-3.429,1.535-3.429,3.428c0,1.894,1.535,3.429,3.429,3.429h0.583l6.614,50.948  c0.224,1.727,1.693,3.018,3.433,3.018h40.129c1.742,0,3.211-1.295,3.433-3.021l6.519-50.944h0.795c1.893,0,3.428-1.535,3.428-3.429  C83.946,30.981,82.411,29.446,80.519,29.446z M36.518,82.463c-0.038,0.002-0.077,0.002-0.114,0.002c-1.063,0-1.952-0.83-2.012-1.904  l-1.614-28.846c-0.062-1.113,0.789-2.064,1.901-2.126c1.113-0.062,2.063,0.789,2.126,1.9l1.613,28.848  C38.48,81.447,37.63,82.4,36.518,82.463z M51.783,80.449c0,1.113-0.903,2.016-2.017,2.016c-1.114,0-2.017-0.902-2.017-2.016V51.602  c0-1.113,0.902-2.016,2.017-2.016c1.113,0,2.017,0.903,2.017,2.016V80.449z M66.756,51.715l-1.614,28.846  c-0.06,1.074-0.949,1.904-2.012,1.904c-0.038,0-0.077,0-0.114-0.002c-1.111-0.063-1.964-1.016-1.902-2.127l1.614-28.848  c0.062-1.111,1.017-1.965,2.126-1.9C65.967,49.651,66.816,50.602,66.756,51.715z"/><text x="0" y="115" fill="#000000" font-size="5px" font-weight="bold" font-family="'Helvetica Neue', Helvetica, Arial-Unicode, Arial, Sans-serif">Created by Cédric Villain</text><text x="0" y="120" fill="#000000" font-size="5px" font-weight="bold" font-family="'Helvetica Neue', Helvetica, Arial-Unicode, Arial, Sans-serif">from the Noun Project</text></svg>