<svg xmlns="http://www.w3.org/2000/svg" viewBox="0 0 32 40" x="0px" y="0px"><path d="M25.684,3.658c-.512-1.023-1.54-1.658-2.684-1.658H9c-1.144,0-2.172,.635-2.684,1.658-.511,1.023-.402,2.227,.284,3.142l6.199,8.267c.129,.172,.2,.385,.2,.6v12.333c0,.763,.424,1.448,1.105,1.789,.285,.143,.592,.213,.896,.213,.423,0,.843-.136,1.197-.402l1.999-1.499c.502-.375,.802-.974,.802-1.601V15.667c0-.214,.071-.427,.2-.6l6.199-8.267c.687-.915,.795-2.119,.284-3.142Zm-1.884,1.942l-6.199,8.267c-.388,.516-.601,1.155-.601,1.8v10.833l-2,1.5V15.667c0-.645-.213-1.284-.601-1.8L8.2,5.6c-.232-.31-.268-.701-.095-1.047s.508-.553,.895-.553h14c.387,0,.722,.207,.895,.553s.138,.738-.095,1.047Z"/><text x="0" y="47" fill="#000000" font-size="5px" font-weight="bold" font-family="'Helvetica Neue', Helvetica, Arial-Unicode, Arial, Sans-serif">Created by Fajriah Robiatul Adawiah</text><text x="0" y="52" fill="#000000" font-size="5px" font-weight="bold" font-family="'Helvetica Neue', Helvetica, Arial-Unicode, Arial, Sans-serif">from the Noun Project</text></svg>