<svg xmlns="http://www.w3.org/2000/svg" viewBox="0 0 32 40" x="0px" y="0px"><path d="M28,13h-1.415c-.232-.822-.562-1.611-.981-2.361l1.003-1.003c.378-.377,.586-.88,.586-1.415s-.208-1.036-.586-1.414l-1.414-1.414c-.779-.78-2.049-.78-2.828,0l-1.003,1.003c-.75-.42-1.539-.749-2.361-.981v-1.415c0-1.103-.897-2-2-2h-2c-1.103,0-2,.897-2,2v1.415c-.822,.233-1.611,.561-2.361,.981l-1.003-1.003c-.779-.78-2.049-.78-2.828,0l-1.414,1.414c-.378,.378-.586,.88-.586,1.414s.208,1.037,.586,1.414l1.003,1.003c-.42,.75-.749,1.539-.981,2.361h-1.415c-1.103,0-2,.897-2,2v2c0,1.103,.897,2,2,2h1.415c.232,.822,.562,1.611,.981,2.361l-1.003,1.003c-.378,.377-.586,.88-.586,1.415s.208,1.036,.586,1.414l1.414,1.414c.779,.78,2.049,.78,2.828,0l1.003-1.003c.75,.42,1.539,.749,2.361,.981v1.415c0,1.103,.897,2,2,2h2c1.103,0,2-.897,2-2v-1.415c.822-.233,1.611-.561,2.361-.981l1.003,1.003c.779,.78,2.049,.78,2.828,0l1.414-1.414c.378-.378,.586-.88,.586-1.414s-.208-1.037-.586-1.414l-1.003-1.003c.42-.75,.749-1.539,.981-2.361h1.415c1.103,0,2-.897,2-2v-2c0-1.103-.897-2-2-2Zm0,4h-2.201c-.476,0-.886,.335-.98,.801-.228,1.125-.669,2.188-1.312,3.158-.263,.396-.209,.923,.127,1.259l1.56,1.56-1.414,1.414-1.56-1.559c-.337-.337-.863-.389-1.26-.126-.969,.642-2.031,1.083-3.158,1.312-.466,.095-.801,.504-.801,.98v2.201h-2v-2.201c0-.476-.335-.885-.801-.98-1.127-.229-2.189-.67-3.158-1.312-.169-.112-.361-.167-.553-.167-.258,0-.514,.1-.707,.293l-1.56,1.559-1.414-1.414,1.56-1.56c.336-.336,.39-.863,.127-1.259-.644-.97-1.085-2.033-1.312-3.158-.095-.466-.505-.801-.98-.801h-2.201v-2h2.201c.476,0,.886-.335,.98-.801,.228-1.125,.669-2.188,1.312-3.158,.263-.396,.209-.923-.127-1.259l-1.56-1.56,1.414-1.414,1.56,1.559c.337,.337,.863,.388,1.26,.126,.969-.642,2.031-1.083,3.158-1.312,.466-.095,.801-.504,.801-.98v-2.201h2v2.201c0,.476,.335,.885,.801,.98,1.127,.229,2.189,.67,3.158,1.312,.396,.262,.923,.21,1.26-.126l1.56-1.559,1.414,1.414-1.56,1.56c-.336,.336-.39,.863-.127,1.259,.644,.97,1.085,2.033,1.312,3.158,.095,.466,.505,.801,.98,.801h2.201v2Zm-12-8c-3.859,0-7,3.14-7,7s3.141,7,7,7,7-3.14,7-7-3.141-7-7-7Zm0,12c-2.757,0-5-2.243-5-5s2.243-5,5-5,5,2.243,5,5-2.243,5-5,5Z"/><text x="0" y="47" fill="#000000" font-size="5px" font-weight="bold" font-family="'Helvetica Neue', Helvetica, Arial-Unicode, Arial, Sans-serif">Created by Fajriah Robiatul Adawiah</text><text x="0" y="52" fill="#000000" font-size="5px" font-weight="bold" font-family="'Helvetica Neue', Helvetica, Arial-Unicode, Arial, Sans-serif">from the Noun Project</text></svg>