<svg xmlns="http://www.w3.org/2000/svg" xmlns:xlink="http://www.w3.org/1999/xlink" version="1.1" x="0px" y="0px" viewBox="0 0 512 640" enable-background="new 0 0 512 512" xml:space="preserve"><g><path d="M407,2H105c-7.8,0-14.1,6.3-14.1,14.1v457.4c0,7.8,6.3,14.1,14.1,14.1h22.3v8.2c0,7.8,6.3,14.1,14.1,14.1   c7.8,0,14.1-6.3,14.1-14.1v-8.2h200.9v8.2c0,7.8,6.3,14.1,14.1,14.1c7.8,0,14.1-6.3,14.1-14.1v-8.2H407c7.8,0,14.1-6.3,14.1-14.1   V16.1C421.1,8.3,414.8,2,407,2z M392.9,459.4H119.1V200.3h273.8V459.4z M392.9,172.1H119.1V30.2h273.8V172.1z"/><path d="M160.5,130.3c7.8,0,14.1-6.3,14.1-14.1V86.1c0-7.8-6.3-14.1-14.1-14.1s-14.1,6.3-14.1,14.1v30.1   C146.4,124,152.7,130.3,160.5,130.3z"/><path d="M160.5,359c7.8,0,14.1-6.3,14.1-14.1v-30.1c0-7.8-6.3-14.1-14.1-14.1s-14.1,6.3-14.1,14.1v30.1   C146.4,352.7,152.7,359,160.5,359z"/></g><text x="0" y="527" fill="#000000" font-size="5px" font-weight="bold" font-family="'Helvetica Neue', Helvetica, Arial-Unicode, Arial, Sans-serif">Created by Icon Fair</text><text x="0" y="532" fill="#000000" font-size="5px" font-weight="bold" font-family="'Helvetica Neue', Helvetica, Arial-Unicode, Arial, Sans-serif">from the Noun Project</text></svg>