<svg xmlns="http://www.w3.org/2000/svg" viewBox="0 0 32 40" x="0px" y="0px"><path d="M29.707,28.293l-8.259-8.259c1.592-1.908,2.552-4.36,2.552-7.034,0-6.065-4.935-11-11-11S2,6.935,2,13s4.935,11,11,11c2.673,0,5.125-.961,7.034-2.552l8.259,8.259c.195,.195,.451,.293,.707,.293s.512-.098,.707-.293c.391-.391,.391-1.023,0-1.414ZM4,13c0-4.962,4.038-9,9-9s9,4.038,9,9-4.038,9-9,9S4,17.962,4,13Z"/><text x="0" y="47" fill="#000000" font-size="5px" font-weight="bold" font-family="'Helvetica Neue', Helvetica, Arial-Unicode, Arial, Sans-serif">Created by Fajriah Robiatul Adawiah</text><text x="0" y="52" fill="#000000" font-size="5px" font-weight="bold" font-family="'Helvetica Neue', Helvetica, Arial-Unicode, Arial, Sans-serif">from the Noun Project</text></svg>