<svg xmlns="http://www.w3.org/2000/svg" viewBox="0 0 32 40" x="0px" y="0px"><path d="M29,13h-1.312l-2.281-5.953c-.417-1.225-1.562-2.047-2.846-2.047h-1.744c-.414-1.161-1.514-2-2.816-2h-4c-1.302,0-2.402,.839-2.816,2h-1.744c-1.285,0-2.429,.823-2.833,2.012l-2.294,5.988h-1.312c-.552,0-1,.448-1,1s.448,1,1,1h.19l2.477,11.675c.316,1.369,1.518,2.325,2.923,2.325h14.818c1.405,0,2.607-.956,2.927-2.343l2.474-11.657h.19c.552,0,1-.448,1-1s-.448-1-1-1ZM14,5h4c.551,0,1,.449,1,1s-.449,1-1,1h-4c-.551,0-1-.449-1-1s.449-1,1-1Zm-5.514,2.693c.142-.415,.525-.693,.954-.693h1.744c.414,1.161,1.514,2,2.816,2h4c1.302,0,2.402-.839,2.816-2h1.744c.429,0,.812,.278,.966,.728l2.02,5.272H6.454l2.033-5.307Zm15.897,18.532c-.105,.457-.506,.775-.974,.775H8.591c-.468,0-.869-.319-.971-.758l-2.386-11.242H26.766l-2.382,11.225Zm-14.383-2.225v-6c0-.552,.448-1,1-1s1,.448,1,1v6c0,.552-.448,1-1,1s-1-.448-1-1Zm5,0v-6c0-.552,.448-1,1-1s1,.448,1,1v6c0,.552-.448,1-1,1s-1-.448-1-1Zm5,0v-6c0-.552,.448-1,1-1s1,.448,1,1v6c0,.552-.448,1-1,1s-1-.448-1-1Z"/><text x="0" y="47" fill="#000000" font-size="5px" font-weight="bold" font-family="'Helvetica Neue', Helvetica, Arial-Unicode, Arial, Sans-serif">Created by Fajriah Robiatul Adawiah</text><text x="0" y="52" fill="#000000" font-size="5px" font-weight="bold" font-family="'Helvetica Neue', Helvetica, Arial-Unicode, Arial, Sans-serif">from the Noun Project</text></svg>