<svg xmlns="http://www.w3.org/2000/svg" viewBox="0 0 32 40" x="0px" y="0px"><path d="m16,31c-8.271,0-15-6.729-15-15S7.729,1,16,1s15,6.729,15,15-6.729,15-15,15Zm0-28c-7.168,0-13,5.832-13,13s5.832,13,13,13,13-5.832,13-13S23.168,3,16,3Zm7.659,16.752c.416-.364.458-.995.094-1.411l-7-8c-.38-.434-1.125-.434-1.505,0l-7,8c-.364.416-.322,1.047.094,1.411.417.365,1.047.321,1.411-.094l6.248-7.14,6.248,7.14c.198.226.475.341.753.341.233,0,.468-.082.658-.248Z"/><text x="0" y="47" fill="#000000" font-size="5px" font-weight="bold" font-family="'Helvetica Neue', Helvetica, Arial-Unicode, Arial, Sans-serif">Created by Fajriah Robiatul Adawiah</text><text x="0" y="52" fill="#000000" font-size="5px" font-weight="bold" font-family="'Helvetica Neue', Helvetica, Arial-Unicode, Arial, Sans-serif">from the Noun Project</text></svg>