<svg xmlns="http://www.w3.org/2000/svg" viewBox="0 0 32 40" x="0px" y="0px"><g data-name="Layer 2"><path d="M16,2A14,14,0,1,0,30,16,14.015,14.015,0,0,0,16,2Zm0,26A12,12,0,1,1,28,16,12.013,12.013,0,0,1,16,28Zm9-12a1,1,0,0,1-1,1H16a1,1,0,0,1-1-1V8a1,1,0,0,1,2,0v7h7A1,1,0,0,1,25,16Z"/></g><text x="0" y="47" fill="#000000" font-size="5px" font-weight="bold" font-family="'Helvetica Neue', Helvetica, Arial-Unicode, Arial, Sans-serif">Created by Fajriah Robiatul Adawiah</text><text x="0" y="52" fill="#000000" font-size="5px" font-weight="bold" font-family="'Helvetica Neue', Helvetica, Arial-Unicode, Arial, Sans-serif">from the Noun Project</text></svg>