<svg xmlns="http://www.w3.org/2000/svg" viewBox="0 0 32 40" x="0px" y="0px"><path d="M16,16c3.86,0,7-3.14,7-7s-3.14-7-7-7-7,3.14-7,7,3.14,7,7,7Zm0-12c2.757,0,5,2.243,5,5s-2.243,5-5,5-5-2.243-5-5,2.243-5,5-5Zm2,14h-4c-4.962,0-9,4.038-9,9,0,1.654,1.346,3,3,3H24c1.654,0,3-1.346,3-3,0-4.962-4.038-9-9-9Zm6,10H8c-.551,0-1-.449-1-1,0-3.86,3.14-7,7-7h4c3.86,0,7,3.14,7,7,0,.551-.449,1-1,1Z"/><text x="0" y="47" fill="#000000" font-size="5px" font-weight="bold" font-family="'Helvetica Neue', Helvetica, Arial-Unicode, Arial, Sans-serif">Created by Fajriah Robiatul Adawiah</text><text x="0" y="52" fill="#000000" font-size="5px" font-weight="bold" font-family="'Helvetica Neue', Helvetica, Arial-Unicode, Arial, Sans-serif">from the Noun Project</text></svg>